<svg xmlns="http://www.w3.org/2000/svg" viewBox="0 0 1212.14 414.28"><defs><style>.cls-1,.cls-2{fill:#fff;}.cls-2{font-size:194.87px;font-family:ProximaNova-Bold, Proxima Nova;font-weight:700;}.cls-3{fill:#f2f2f2;}.cls-4{fill:#b3b3b3;}.cls-5{fill:#e6e6e6;}.cls-6{fill:#ccc;}.cls-7{fill:#8c8c8c;}</style></defs><title>LogoWhite</title><g id="Capa_2" data-name="Capa 2"><g id="Logo"><path class="cls-1" d="M276.17,377.19,9,222.94a18,18,0,0,1-6.58-24.58l42.15-73a33,33,0,0,0,9.1,29.33Z"/><path class="cls-1" d="M285.84,365.65,64.27,144.08a18,18,0,0,1,0-25.46l62.2-62.2a33,33,0,0,0,0,33.1Z"/><path class="cls-1" d="M300.3,360.7,139.41,82A18,18,0,0,1,146,57.44l38.16-22,7.51-4.34,7.49-4.32L226.43,11a33.09,33.09,0,0,0-11.87,24.64,33.23,33.23,0,0,0,1.13,9.26V45l2.75,10.25Z"/><path class="cls-1" d="M313.72,0a33,33,0,0,0-7.49,11.28,32.52,32.52,0,0,0-2.11,8.49,31.86,31.86,0,0,0-.21,3.67V316.2L236.82,65.81l-2.74-10.25-2.75-10.24L230.18,41A18,18,0,0,1,242.9,19L282.19,8.45l8.36-2.25L298.91,4Z"/><text class="cls-2" transform="translate(778.18 314.86)">UNO</text><text class="cls-2" transform="translate(666.91 315.35)">d</text><polygon class="cls-3" points="444.03 144.95 444.03 231.91 405.57 209.33 444.03 144.95"/><polygon class="cls-4" points="481.66 209.33 444.03 231.91 444.03 144.95 481.66 209.33"/><polygon class="cls-5" points="444.03 190.94 444.03 231.91 405.57 209.33 444.03 190.94"/><polygon class="cls-6" points="481.66 209.33 444.03 231.91 444.03 190.94 481.66 209.33"/><polygon class="cls-7" points="444.03 237.76 444.03 268.7 406.41 215.6 444.03 237.76"/><polygon class="cls-6" points="481.66 215.6 444.03 268.7 444.03 237.76 481.66 215.6"/><path class="cls-1" d="M422.31,396.53V333.79a13.73,13.73,0,1,1,5.07.18v57.49H569.91V290.52H526.8v-5.07h43.11V92.7H542V87.63h27.89V23.71A18.26,18.26,0,0,0,551.65,5.45H500.93V84.58H397.23a15.73,15.73,0,1,1,0-5.07h98.63V5.45H346.73V123.34a16.74,16.74,0,1,1-5.07,0V5.45h-7.1A18.26,18.26,0,0,0,316.3,23.71V396a18.25,18.25,0,0,0,14.58,17.89,18.52,18.52,0,0,0,3.68.37h55.79V323H346.49a13.7,13.7,0,1,1,0-5.07h48.94v96.37H551.65a18.24,18.24,0,0,0,18.24-17.75ZM338,273.56c-23.88-39.35,3.85-99.82,61.94-135.06s124.53-31.9,148.4,7.46S544.46,245.78,486.38,281,361.85,312.92,338,273.56Z"/><circle class="cls-1" cx="344.2" cy="139.87" r="11.67"/><circle class="cls-1" cx="425.35" cy="320.45" r="8.62"/><circle class="cls-1" cx="381.73" cy="82.05" r="10.65"/><circle class="cls-1" cx="333.04" cy="320.45" r="8.62"/></g></g></svg>